# xmcd
#
# Track frame offsets: 
#        150
#        14097
#        29093
#        46494
#        65784
#        76883
#        88466
#        104737
#        125824
#        143224
#        161194
#        176282
#        193676
#        215872
#        231989
#        245163
#
# Disc length: 3446 seconds
#
# Revision: 0
# Processed by: cddbd v1.5.2PL0 Copyright (c) Steve Scherf et al.
# Submitted via: ExactAudioCopyFreeDBPlugin 1.0
#
DISCID=060d7410
DTITLE=John Campbelljohn - Chin Up
DYEAR=2016
DGENRE=Blues
TTITLE0=The Mumble Boogie
TTITLE1=I Got It All
TTITLE2=Meet My Maker
TTITLE3=The Poor Man Pays
TTITLE4=Castaway
TTITLE5=Attitude
TTITLE6=How Stupid Is That
TTITLE7=Stop Making Excuses
TTITLE8=Sally In The Alley
TTITLE9=Fantastico Supremo
TTITLE10=Good Morning Mr. Blue Sky
TTITLE11=She's Gone
TTITLE12=Sydney Steel
TTITLE13=You Don't Skype Me
TTITLE14=Souls For Money
TTITLE15=Laugh At The Devil
EXTD=
EXTT0=
EXTT1=
EXTT2=
EXTT3=
EXTT4=
EXTT5=
EXTT6=
EXTT7=
EXTT8=
EXTT9=
EXTT10=
EXTT11=
EXTT12=
EXTT13=
EXTT14=
EXTT15=
PLAYORDER=
